# xmcd
#
# Track frame offsets:
#	150
#	15075
#	31377
#	50140
#	65372
#	80442
#	98275
#	114462
#	132132
#	144450
#
# Disc length: 2135 seconds
# Revision: 2
# Processed by: cddbd v1.5.2PL0 Copyright (c) Steve Scherf et al.
# Submitted via: dBpowerAMP V12.0
#
DISCID=7408550a
DTITLE=Various Artist - Top Ten Country D3
DYEAR=2002
DGENRE=Country
TTITLE0=Alabama - Born Country
TTITLE1=Keith Whitley - I'm No Stranger To the Rain
TTITLE2=K.T. Oslin - I'll Always Come Back
TTITLE3=Eddie Rabbitt - The Wanderer
TTITLE4=Sylvia - Nobody
TTITLE5=Earl Thomas Conley - Angel In Disguise
TTITLE6=Juice Newton - The Sweetest Thing (I've Ever Known)
TTITLE7=Michael Johnson - The Moon Is Still Over Her Shoulder
TTITLE8=Eddy Raven - You're Never Too Old for Young Love
TTITLE9=Steve Wariner - All Roads Lead To You
EXTD=
EXTT0=
EXTT1=
EXTT2=
EXTT3=
EXTT4=
EXTT5=
EXTT6=
EXTT7=
EXTT8=
EXTT9=
PLAYORDER=
